<svg width="1920" height="763" viewBox="0 0 1920 763" fill="none" xmlns="http://www.w3.org/2000/svg">
<path style="mix-blend-mode:lighten" fill-rule="evenodd" clip-rule="evenodd" d="M1233.18 0L1233.61 0.186L1460.09 98.246L1460.52 98.433L1460.95 98.619L1687 196.494L1687.44 196.68L1687.87 196.866L1913.05 294.369L1913.48 294.183L1913.92 293.997L1914.35 294.183L2141.25 392.43L2141.68 392.616L2141.25 392.802L1914.35 491.049L1913.92 491.235L2139.69 588.991L2140.12 589.177L2140.55 589.362L2140.83 589.482L2367.31 491.421L2367.73 491.235L2368.17 491.421L2594.65 589.482L2595.08 589.668L2595.51 589.854L2821.56 687.729L2821.99 687.915L2822.43 688.101L3048.91 786.162L3049.33 786.348L3048.91 786.534L2821.99 884.781L2821.56 884.967L2821.13 884.781L2820.43 884.476L2594.37 982.35L2593.95 982.536L2593.52 982.722L2367.04 1080.78L2366.6 1080.97L2366.17 1080.78L2365.87 1080.65L2139.53 1178.64L2139.11 1178.83L2138.68 1178.64L2137.97 1178.34L1911.92 1276.21L1911.49 1276.4L1911.07 1276.58L1684.59 1374.65L1684.15 1374.83L1683.72 1374.65L1457.24 1276.58L1456.81 1276.4L1456.39 1276.21L1230.33 1178.34L1229.9 1178.15L1229.47 1177.97L1003.42 1080.09L1002.99 1079.9L1002.56 1079.72L776.505 981.843L776.076 981.657L775.645 981.471L549.593 883.596L549.164 883.41L548.735 883.224L322.681 785.349L322.252 785.163L321.823 784.977L95.7693 687.102L95.3413 686.917L94.912 686.731L-131.571 588.669L-132 588.483L-131.571 588.297L94.912 490.236L95.3413 490.05L95.7707 489.864L322.252 391.803L322.681 391.618L323.112 391.803L323.817 392.109L550.299 294.048L550.728 293.862L551.157 294.048L551.468 294.182L777.365 196.375L777.795 196.189L778.224 196.003L1004.71 97.942L1005.14 97.756L1005.57 97.942L1006.27 98.247L1232.75 0.186L1233.18 0ZM778.38 392.429L778.069 392.295L777.64 392.109L552.327 294.554L778.224 196.747L1004.28 294.622L778.38 392.429ZM1005.29 490.676L1004.98 490.542L1004.55 490.356L779.239 392.801L1005.14 294.994L1231.19 392.869L1005.29 490.676ZM1232.2 588.923L1231.89 588.789L1231.46 588.603L1006.15 491.048L1232.05 393.241L1458.09 491.115L1232.2 588.923ZM1459.12 687.17L1458.8 687.036L1458.37 686.85L1233.06 589.295L1458.96 491.488L1685.01 589.362L1459.12 687.17ZM1686.03 785.417L1685.72 785.283L1685.28 785.097L1459.97 687.542L1685.87 589.734L1911.92 687.609L1686.03 785.417ZM1912.93 883.664L1912.63 883.53L1912.2 883.344L1686.88 785.789L1912.79 687.981L2138.84 785.856L1912.93 883.664ZM2139.85 981.911L2139.53 981.777L2139.11 981.591L1913.8 884.036L2139.69 786.229L2365.75 884.104L2139.85 981.911ZM2366.76 1080.16L2366.45 1080.02L2140.71 982.283L2366.6 884.475L2592.65 982.35L2366.76 1080.16ZM550.573 294.673L324.676 392.481L549.593 489.864L550.023 490.05L550.381 490.206L550.452 490.236L550.728 490.356L776.625 392.548L550.884 294.808L550.573 294.673ZM777.484 392.92L551.587 490.728L776.505 588.112L776.935 588.298L777.364 588.483L777.64 588.603L1003.54 490.795L778.224 393.241L777.795 393.055L777.484 392.92ZM1004.4 491.167L778.499 588.975L1003.42 686.359L1003.85 686.545L1004.28 686.731L1004.55 686.85L1230.45 589.042L1005.14 491.488L1004.71 491.301L1004.4 491.167ZM1231.31 589.414L1005.41 687.222L1230.33 784.605L1230.76 784.792L1231.19 784.977L1231.46 785.097L1457.36 687.289L1232.05 589.734L1231.62 589.548L1231.31 589.414ZM1458.21 687.661L1232.32 785.469L1457.24 882.853L1457.67 883.038L1458.09 883.224L1458.37 883.344L1684.27 785.536L1458.96 687.981L1458.53 687.795L1458.21 687.661ZM1685.13 785.908L1459.23 883.716L1684.15 981.099L1684.59 981.285L1685.01 981.472L1685.28 981.591L1911.19 883.783L1685.87 786.228L1685.44 786.042L1685.13 785.908ZM1912.04 884.155L1686.15 981.963L1911.07 1079.35L1911.49 1079.53L1911.92 1079.72L1912.2 1079.84L2138.09 982.03L1912.79 884.475L1912.35 884.289L1912.04 884.155ZM2138.95 982.402L1913.05 1080.21L2138.4 1177.78L2138.84 1177.97L2139.11 1178.08L2365 1080.28L2139.69 982.722L2139.27 982.536L2138.95 982.402ZM2819.57 884.104L2593.52 981.979L2367.47 884.104L2593.52 786.229L2593.79 786.348L2594.23 786.534L2594.65 786.72L2819.57 884.104ZM2366.6 883.731L2592.65 785.856L2367.73 688.473L2367.31 688.287L2366.88 688.101L2366.6 687.982L2140.55 785.856L2366.6 883.731ZM2593.52 785.485L2593.95 785.67L2594.37 785.856L2594.65 785.976L2820.71 688.101L2594.65 590.226L2368.6 688.101L2593.52 785.485ZM2595.51 786.348L2820.85 883.918L2821.29 884.104L2821.56 884.223L3047.61 786.348L2821.56 688.473L2595.51 786.348ZM2139.69 785.485L1913.64 687.609L2139.69 589.735L2139.97 589.854L2140.4 590.04L2365.75 687.61L2139.69 785.485ZM2593.79 589.854L2367.73 687.729L2367.47 687.61L2367.04 687.424L2366.6 687.237L2141.69 589.854L2367.73 491.979L2593.79 589.854ZM2138.84 589.362L1912.79 687.238L1686.73 589.362L1912.79 491.487L2138.84 589.362ZM1685.87 588.991L1459.81 491.116L1639.63 413.261L1685.87 393.241L1686.57 393.546L1687 393.732L1911.92 491.116L1685.87 588.991ZM1458.96 490.744L1232.91 392.869L1458.96 294.994L1459.24 295.113L1459.67 295.299L1460.09 295.485L1685.01 392.869L1458.96 490.744ZM1686.57 392.43L1686.15 392.616L1685.87 392.497L1460.95 295.113L1687 197.238L1912.2 294.741L1686.57 392.43ZM1688.72 392.988L1913.92 490.491L2139.97 392.616L1914.77 295.113L1914.35 295.299L1688.72 392.988ZM1231.19 196.375L1005.14 294.25L779.084 196.375L1005.14 98.5L1005.41 98.619L1005.84 98.805L1231.19 196.375ZM1007.13 98.619L1232.05 196.003L1232.48 196.189L1232.91 196.375L1233.18 196.494L1459.24 98.619L1233.18 0.744L1007.13 98.619ZM1232.05 196.747L1005.99 294.622L1232.05 392.496L1409.8 315.533L1458.09 294.622L1233.18 197.238L1232.75 197.052L1232.32 196.866L1232.05 196.747ZM1234.04 196.866L1460.09 98.991L1686.15 196.866L1460.09 294.741L1459.81 294.622L1459.39 294.436L1458.96 294.25L1234.04 196.866ZM1683.29 1177.97L1457.24 1275.84L1231.19 1177.97L1457.24 1080.09L1683.29 1177.97ZM1911.07 1275.84L1685.01 1177.97L1911.07 1080.09L1911.33 1080.21L1911.76 1080.4H1911.77L1912.2 1080.58L2137.12 1177.97L1911.07 1275.84ZM1458.09 1079.72L1684.15 1177.59L1910.2 1079.72L1685.28 982.335L1684.85 982.149L1684.43 981.963L1684.15 981.843L1458.09 1079.72ZM1684.15 1374.09L1458.09 1276.21L1684.15 1178.34L1910.2 1276.21L1684.15 1374.09ZM1457.24 1079.35L1683.29 981.472L1458.37 884.088L1457.95 883.902L1457.52 883.716L1457.24 883.596L1231.19 981.471L1457.24 1079.35ZM1230.33 1177.59L1456.39 1079.72L1230.33 981.843L1004.28 1079.72L1230.33 1177.59ZM1229.47 981.471L1003.42 1079.35L777.364 981.471L1003.42 883.596L1229.47 981.471ZM1004.28 883.224L1230.33 981.099L1456.39 883.224L1231.46 785.841L1231.03 785.655L1230.6 785.469L1230.33 785.349L1004.28 883.224ZM1003.42 882.852L1229.47 784.977L1004.55 687.594L1004.12 687.408L1003.69 687.222L1003.42 687.103L930.325 718.749L777.364 784.977L1003.42 882.852ZM776.505 981.099L1002.56 883.224L776.505 785.349L550.453 883.224L776.505 981.099ZM775.645 784.977L549.593 882.852L323.541 784.977L549.593 687.102L775.645 784.977ZM550.453 686.731L776.505 784.606L1002.56 686.731L777.64 589.347L777.209 589.161L776.78 588.975L776.505 588.855L550.453 686.731ZM96.6293 686.731L322.681 784.606L548.735 686.731L322.681 588.855L96.6293 686.731ZM322.681 588.112L548.735 490.237L323.387 392.667L322.957 392.481L322.681 392.361L96.6293 490.236L322.681 588.112ZM95.7707 686.358L321.823 588.483L95.7693 490.608L-130.281 588.483L95.7707 686.358ZM323.541 588.483L549.593 490.608L549.869 490.728L550.299 490.914L550.728 491.1L775.645 588.484L549.593 686.359V686.358L323.541 588.483Z" fill="url(#paint0_linear_1_627)"/>
<defs>
<linearGradient id="paint0_linear_1_627" x1="1409.47" y1="270.055" x2="1497.31" y2="826.082" gradientUnits="userSpaceOnUse">
<stop offset="0.063" stop-color="white" stop-opacity="0"/>
<stop offset="1" stop-color="white" stop-opacity="0.4"/>
</linearGradient>
</defs>
</svg>
